<?xml version="1.0" encoding="UTF-8" standalone="no"?>
<svg
   width="180"
   height="180"
   version="1.1"
   desc="Created with imagetracer.js version 1.2.5"
   id="svg2"
   sodipodi:docname="Solidtime.svg"
   xml:space="preserve"
   inkscape:version="1.4.2 (ebf0e94, 2025-05-08)"
   inkscape:export-filename="Solidtime.png"
   inkscape:export-xdpi="136.53334"
   inkscape:export-ydpi="136.53334"
   xmlns:inkscape="http://www.inkscape.org/namespaces/inkscape"
   xmlns:sodipodi="http://sodipodi.sourceforge.net/DTD/sodipodi-0.dtd"
   xmlns="http://www.w3.org/2000/svg"
   xmlns:svg="http://www.w3.org/2000/svg"><defs
     id="defs2" /><sodipodi:namedview
     id="namedview2"
     pagecolor="#ffffff"
     bordercolor="#000000"
     borderopacity="0.25"
     inkscape:showpageshadow="2"
     inkscape:pageopacity="0.0"
     inkscape:pagecheckerboard="0"
     inkscape:deskcolor="#d1d1d1"
     inkscape:zoom="6.6833333"
     inkscape:cx="90"
     inkscape:cy="90"
     inkscape:window-width="2560"
     inkscape:window-height="1417"
     inkscape:window-x="-8"
     inkscape:window-y="-8"
     inkscape:window-maximized="1"
     inkscape:current-layer="layer3" /><g
     inkscape:groupmode="layer"
     id="layer2"
     inkscape:label="Background"
     style="display:inline"><rect
       style="fill:#000000;fill-opacity:1;stroke:none;stroke-width:42.52;stroke-linejoin:round"
       id="rect2"
       width="180"
       height="180"
       x="0"
       y="0"
       inkscape:label="Black rectangle" /></g><g
     inkscape:groupmode="layer"
     id="layer3"
     inkscape:label="Logo"
     style="display:inline;opacity:0.561"><path
       fill="#fdfdfd"
       stroke="#fdfdfd"
       stroke-width="1"
       opacity="1"
       d="M 141.74813,50.145885 119.9015,72.897756 C 105.06115,56.920043 87.62458,61.585218 85.973877,64.025 82.213057,69.583593 89.665873,72.675617 90.5,73 c 32.58842,8.007835 50.60314,16.554459 47.20075,47.5 -1.73333,8.6 -5.26742,14.5015 -11.20075,18.9015 -10.4,9.26667 -25.83558,12.74962 -48.102244,10.14962 C 60.997756,146.28445 46.266667,139.9 36,129.5 L 58.173317,106.62594 C 69.922498,119.52906 92.700608,121.94224 98,115.5 c 0.866667,-3.46667 -0.19443,-5.4463 -1.687033,-6.76185 -4.33991,-2.97445 -10.514059,-2.0909 -29.289276,-9.812963 -5.666667,-2.333333 -10.724439,-5.275561 -14.724439,-9.275561 -8.645264,-8.744635 -11.681713,-32.665595 2.649626,-46.200748 21.987,-21.381853 66.518042,-16.950549 86.799252,6.697007 z"
       id="path2"
       sodipodi:nodetypes="ccscccccccccccc"
       style="fill:#ffffff;fill-opacity:1;stroke:none"
       inkscape:label="White S" /></g></svg>
